<?xml version="1.0"?>
<!DOCTYPE svg PUBLIC "-//W3C//DTD SVG 1.1//EN" "http://www.w3.org/Graphics/SVG/1.1/DTD/svg11.dtd">
<svg xmlns="http://www.w3.org/2000/svg" version="1.1" width="200" height="200" viewBox="0 0 200 200 ">
<g stroke="black" stroke-width="10">
  <rect x="5" y="5" width="190" height="190" fill="#888" />
</g>
<g stroke="black" stroke-width="2">
<rect x="10" y="10" width="60" height="60" fill="#FFFF00" />
<rect x="70" y="10" width="60" height="60" fill="none" />
<rect x="130" y="10" width="60" height="60" fill="none" />
<rect x="10" y="70" width="60" height="60" fill="none" />
<rect x="70" y="70" width="60" height="60" fill="#FFFF00" />
<rect x="130" y="70" width="60" height="60" fill="#FFFF00" />
<rect x="10" y="130" width="60" height="60" fill="none" />
<rect x="70" y="130" width="60" height="60" fill="#FFFF00" />
<rect x="130" y="130" width="60" height="60" fill="#FFFF00" />
</g>
<g stroke="black" stroke-width="2">
<rect x="10" y="1" width="60" height="9" fill="none" />
<rect x="70" y="1" width="60" height="9" fill="#FFFF00" />
<rect x="130" y="1" width="60" height="9" fill="none" />
<rect x="1" y="10" width="9" height="60" fill="none" />
<rect x="190" y="10" width="9" height="60" fill="#FFFF00" />
<rect x="1" y="70" width="9" height="60" fill="#FFFF00" />
<rect x="190" y="70" width="9" height="60" fill="none" />
<rect x="1" y="130" width="9" height="60" fill="none" />
<rect x="190" y="130" width="9" height="60" fill="none" />
<rect x="10" y="190" width="60" height="9" fill="#FFFF00" />
<rect x="70" y="190" width="60" height="9" fill="none" />
<rect x="130" y="190" width="60" height="9" fill="none" />
</g>
</svg>