<?xml version="1.0"?>
<!DOCTYPE svg PUBLIC "-//W3C//DTD SVG 1.1//EN" "http://www.w3.org/Graphics/SVG/1.1/DTD/svg11.dtd">
<svg xmlns="http://www.w3.org/2000/svg" version="1.1" width="200" height="200" viewBox="0 0 200 200 ">
<defs>
<marker id="arrowhead1" markerWidth="10" markerHeight="7" refX="4" refY="2.5" orient="auto">
  <polygon points="0 0, 6 2.5, 0 5" />
</marker>
<marker id="arrowhead2" markerWidth="10" markerHeight="7" refX="2.5" refY="2.5" orient="auto">
  <polygon points="6 0, 0 2.5, 6 5" />
</marker>
</defs>
<g stroke="black" stroke-width="10">
  <rect x="5" y="5" width="190" height="190" fill="#888" />
</g>
<g stroke="black" stroke-width="2">
<rect x="10" y="10" width="60" height="60" fill="#FFFF00" />
<rect x="70" y="10" width="60" height="60" fill="#FFFF00" />
<rect x="130" y="10" width="60" height="60" fill="#FFFF00" />
<rect x="10" y="70" width="60" height="60" fill="#FFFF00" />
<rect x="70" y="70" width="60" height="60" fill="#FFFF00" />
<rect x="130" y="70" width="60" height="60" fill="#FFFF00" />
<rect x="10" y="130" width="60" height="60" fill="#FFFF00" />
<rect x="70" y="130" width="60" height="60" fill="#FFFF00" />
<rect x="130" y="130" width="60" height="60" fill="#FFFF00" />
</g>
<g stroke="black" stroke-width="2">
<rect x="10" y="1" width="60" height="9" fill="#FF0000" />
<rect x="70" y="1" width="60" height="9" fill="#FF0000" />
<rect x="130" y="1" width="60" height="9" fill="#0000FF" />
<rect x="1" y="10" width="9" height="60" fill="#00FF00" />
<rect x="190" y="10" width="9" height="60" fill="#FF8800" />
<rect x="1" y="70" width="9" height="60" fill="#0000FF" />
<rect x="190" y="70" width="9" height="60" fill="#00FF00" />
<rect x="1" y="130" width="9" height="60" fill="#00FF00" />
<rect x="190" y="130" width="9" height="60" fill="#FF0000" />
<rect x="10" y="190" width="60" height="9" fill="#FF8800" />
<rect x="70" y="190" width="60" height="9" fill="#FF8800" />
<rect x="130" y="190" width="60" height="9" fill="#0000FF" />
</g>
<line x1="160" y1="40" x2="160" y2="160" stroke="#000" stroke-width="4" marker-end="url(#arrowhead1)" marker-start="url(#arrowhead2)" />
<line x1="40" y1="100" x2="160" y2="100" stroke="#000" stroke-width="4" marker-end="url(#arrowhead1)" marker-start="url(#arrowhead2)" />
</svg>